<?xml version="1.0" encoding="utf-8"?>
<!-- Alphabet MSDF source - 8x7 grid of 52 letter glyphs -->
<!-- Glyph order: A-Z (indices 0-25), a-z (indices 26-51) -->
<!-- Font: DejaVu Sans Bold | Generated for Matrix digital rain alphabet mode -->
<svg version="1.1" id="Layer_1" xmlns="http://www.w3.org/2000/svg"
     viewBox="0 0 512 512" width="512" height="512">
<path d="M41.37 51.32H22.66L19.71 59.77H7.68L24.87 13.37H39.13L56.32 59.77H44.29ZM25.64 42.71H38.36L32.02 24.25Z M95.39 30.30Q98.77 30.30 100.52 28.81Q102.27 27.32 102.27 24.41Q102.27 21.55 100.52 20.04Q98.77 18.53 95.39 18.53H87.46V30.30ZM95.87 54.61Q100.19 54.61 102.37 52.79Q104.54 50.96 104.54 47.28Q104.54 43.66 102.39 41.86Q100.23 40.05 95.87 40.05H87.46V54.61ZM109.20 34.62Q113.82 35.96 116.35 39.57Q118.88 43.18 118.88 48.43Q118.88 56.47 113.44 60.42Q108.01 64.37 96.91 64.37H73.12V8.78H94.64Q106.22 8.78 111.41 12.28Q116.61 15.78 116.61 23.48Q116.61 27.54 114.71 30.39Q112.81 33.24 109.20 34.62Z M182.79 60.38Q178.98 62.36 174.86 63.36Q170.73 64.37 166.24 64.37Q152.86 64.37 145.04 56.88Q137.21 49.40 137.21 36.59Q137.21 23.74 145.04 16.26Q152.86 8.78 166.24 8.78Q170.73 8.78 174.86 9.78Q178.98 10.79 182.79 12.76V23.85Q178.95 21.23 175.22 20.01Q171.48 18.79 167.36 18.79Q159.96 18.79 155.73 23.53Q151.49 28.26 151.49 36.59Q151.49 44.88 155.73 49.62Q159.96 54.35 167.36 54.35Q171.48 54.35 175.22 53.13Q178.95 51.91 182.79 49.29Z M213.01 20.80V52.34H217.79Q225.96 52.34 230.27 48.29Q234.58 44.24 234.58 36.52Q234.58 28.83 230.28 24.82Q225.99 20.80 217.79 20.80ZM199.68 10.73H213.74Q225.51 10.73 231.27 12.41Q237.03 14.09 241.15 18.10Q244.79 21.60 246.55 26.17Q248.32 30.74 248.32 36.52Q248.32 42.37 246.55 46.96Q244.79 51.54 241.15 55.04Q237.00 59.06 231.18 60.74Q225.37 62.41 213.74 62.41H199.68Z M268.25 8.78H306.93V19.61H282.58V29.96H305.48V40.80H282.58V53.53H307.75V64.37H268.25Z M332.66 8.78H371.34V19.61H346.99V29.96H369.89V40.80H346.99V64.37H332.66Z M440.32 58.18Q435.42 60.57 430.14 61.76Q424.86 62.95 419.24 62.95Q406.53 62.95 399.11 55.85Q391.68 48.75 391.68 36.59Q391.68 24.29 399.24 17.24Q406.80 10.19 419.95 10.19Q425.03 10.19 429.68 11.14Q434.33 12.10 438.45 13.97V24.50Q434.19 22.08 429.98 20.89Q425.78 19.69 421.55 19.69Q413.72 19.69 409.48 24.07Q405.24 28.45 405.24 36.59Q405.24 44.66 409.32 49.06Q413.41 53.45 420.94 53.45Q422.98 53.45 424.74 53.19Q426.49 52.94 427.89 52.39V42.52H419.88V33.73H440.32Z M455.68 9.43H469.68V30.12H490.32V9.43H504.32V63.71H490.32V40.70H469.68V63.71H455.68Z M24.83 81.92H39.17V137.51H24.83Z M94.80 81.92H106.05V121.30Q106.05 129.45 101.62 133.48Q97.20 137.51 88.23 137.51H85.95V129.01H87.70Q91.21 129.01 93.01 127.05Q94.80 125.09 94.80 121.30Z M135.68 84.86H148.50V103.01L166.97 84.86H181.86L157.92 108.40L184.32 134.57H168.27L148.50 114.99V134.57H135.68Z M204.25 81.92H218.58V126.67H243.75V137.51H204.25Z M263.68 87.85H278.03L287.99 111.25L298.00 87.85H312.32V131.57H301.66V99.60L291.59 123.17H284.44L274.37 99.60V131.57H263.68Z M327.68 82.58H343.31L363.05 119.80V82.58H376.32V136.85H360.69L340.95 99.63V136.85H327.68Z M416.0 94.02Q410.43 94.02 407.36 98.14Q404.28 102.26 404.28 109.73Q404.28 117.17 407.36 121.29Q410.43 125.41 416.0 125.41Q421.61 125.41 424.68 121.29Q427.75 117.17 427.75 109.73Q427.75 102.26 424.68 98.14Q421.61 94.02 416.0 94.02ZM416.0 85.19Q427.4 85.19 433.86 91.71Q440.32 98.24 440.32 109.73Q440.32 121.19 433.86 127.72Q427.4 134.24 416.0 134.24Q404.63 134.24 398.16 127.72Q391.68 121.19 391.68 109.73Q391.68 98.24 398.16 91.71Q404.63 85.19 416.0 85.19Z M457.12 81.92H480.91Q491.52 81.92 497.20 86.63Q502.88 91.34 502.88 100.05Q502.88 108.80 497.20 113.51Q491.52 118.22 480.91 118.22H471.46V137.51H457.12ZM471.46 92.31V107.83H479.39Q483.56 107.83 485.83 105.80Q488.10 103.78 488.10 100.05Q488.10 96.33 485.83 94.32Q483.56 92.31 479.39 92.31Z M33.25 202.34H32.34Q21.06 202.34 14.79 196.10Q8.53 189.87 8.53 178.75Q8.53 167.65 14.78 161.36Q21.03 155.06 32.0 155.06Q43.09 155.06 49.28 161.30Q55.47 167.53 55.47 178.75Q55.47 186.45 52.18 192.01Q48.90 197.57 42.73 200.38L51.93 210.65H40.71ZM32.0 163.59Q26.62 163.59 23.66 167.56Q20.69 171.53 20.69 178.75Q20.69 186.08 23.60 189.98Q26.50 193.87 32.0 193.87Q37.41 193.87 40.37 189.90Q43.34 185.93 43.34 178.75Q43.34 171.53 40.37 167.56Q37.41 163.59 32.0 163.59Z M91.42 179.81Q95.78 179.81 97.68 178.18Q99.57 176.56 99.57 172.84Q99.57 169.16 97.68 167.58Q95.78 165.99 91.42 165.99H85.57V179.81ZM85.57 189.41V209.79H71.68V155.92H92.90Q103.54 155.92 108.50 159.49Q113.46 163.07 113.46 170.79Q113.46 176.13 110.88 179.56Q108.30 182.98 103.11 184.61Q105.96 185.26 108.21 187.55Q110.47 189.84 112.78 194.49L120.32 209.79H105.53L98.96 196.41Q96.97 192.37 94.94 190.89Q92.90 189.41 89.51 189.41Z M177.62 157.72V169.06Q173.21 167.08 169.01 166.08Q164.81 165.08 161.08 165.08Q156.12 165.08 153.76 166.44Q151.39 167.80 151.39 170.67Q151.39 172.83 152.98 174.03Q154.58 175.23 158.78 176.09L164.67 177.28Q173.60 179.07 177.37 182.73Q181.14 186.39 181.14 193.14Q181.14 202.00 175.88 206.33Q170.62 210.65 159.82 210.65Q154.72 210.65 149.59 209.68Q144.46 208.71 139.33 206.81V195.15Q144.46 197.88 149.25 199.26Q154.04 200.64 158.49 200.64Q163.01 200.64 165.42 199.13Q167.82 197.62 167.82 194.83Q167.82 192.31 166.19 190.95Q164.56 189.59 159.68 188.51L154.33 187.33Q146.29 185.60 142.58 181.83Q138.86 178.07 138.86 171.68Q138.86 163.68 144.03 159.37Q149.20 155.06 158.89 155.06Q163.30 155.06 167.97 155.73Q172.63 156.39 177.62 157.72Z M199.68 156.47H248.32V166.76H230.82V209.25H217.21V166.76H199.68Z M264.50 155.06H278.56V187.75Q278.56 194.51 280.77 197.41Q282.98 200.32 287.98 200.32Q293.02 200.32 295.23 197.41Q297.44 194.51 297.44 187.75V155.06H311.50V187.75Q311.50 199.33 305.70 204.99Q299.89 210.65 287.98 210.65Q276.11 210.65 270.30 204.99Q264.50 199.33 264.50 187.75Z M327.68 159.66H339.71L352.02 193.91L364.29 159.66H376.32L359.13 206.06H344.87Z M391.68 165.84H400.09L405.97 190.57L411.81 165.84H420.26L426.10 190.57L431.98 165.84H440.32L432.30 199.87H422.18L416.0 174.00L409.89 199.87H399.77Z M487.51 182.35 504.32 207.08H491.31L479.98 190.53L468.76 207.08H455.68L472.49 182.35L456.33 158.63H469.37L479.98 174.24L490.56 158.63H503.67Z M7.68 232.16H21.13L31.98 249.15L42.84 232.16H56.32L38.15 259.75V279.84H25.85V259.75Z M72.64 228.21H119.36V236.88L89.54 272.96H120.22V283.79H71.78V275.12L101.60 239.04H72.64Z M160.84 258.36Q156.03 258.36 153.60 259.99Q151.18 261.62 151.18 264.80Q151.18 267.72 153.13 269.37Q155.08 271.03 158.56 271.03Q162.90 271.03 165.86 267.91Q168.82 264.80 168.82 260.12V258.36ZM184.32 252.57V280.00H168.82V272.87Q165.73 277.25 161.87 279.25Q158.00 281.24 152.47 281.24Q145.00 281.24 140.34 276.89Q135.68 272.53 135.68 265.57Q135.68 257.12 141.50 253.17Q147.31 249.22 159.76 249.22H168.82V248.01Q168.82 244.37 165.95 242.67Q163.07 240.97 156.97 240.97Q152.04 240.97 147.79 241.96Q143.54 242.95 139.89 244.92V233.20Q144.82 232.00 149.80 231.38Q154.78 230.76 159.76 230.76Q172.77 230.76 178.55 235.89Q184.32 241.02 184.32 252.57Z M223.82 274.68Q227.86 274.68 229.98 271.73Q232.10 268.78 232.10 263.17Q232.10 257.56 229.98 254.61Q227.86 251.67 223.82 251.67Q219.79 251.67 217.63 254.63Q215.48 257.60 215.48 263.17Q215.48 268.75 217.63 271.71Q219.79 274.68 223.82 274.68ZM215.48 249.25Q218.07 245.81 221.23 244.18Q224.39 242.55 228.49 242.55Q235.75 242.55 240.41 248.32Q245.08 254.09 245.08 263.17Q245.08 272.26 240.41 278.02Q235.75 283.79 228.49 283.79Q224.39 283.79 221.23 282.16Q218.07 280.53 215.48 277.10V282.78H202.92V228.21H215.48Z M311.37 231.14V244.94Q307.92 242.58 304.45 241.44Q300.98 240.31 297.24 240.31Q290.15 240.31 286.20 244.44Q282.26 248.58 282.26 256.0Q282.26 263.42 286.20 267.56Q290.15 271.69 297.24 271.69Q301.21 271.69 304.78 270.51Q308.35 269.33 311.37 267.01V280.86Q307.40 282.33 303.32 283.06Q299.23 283.79 295.11 283.79Q280.79 283.79 272.71 276.44Q264.63 269.09 264.63 256.0Q264.63 242.91 272.71 235.56Q280.79 228.21 295.11 228.21Q299.27 228.21 303.32 228.94Q307.36 229.67 311.37 231.14Z M360.45 249.25V228.21H373.08V282.78H360.45V277.10Q357.86 280.57 354.74 282.18Q351.61 283.79 347.51 283.79Q340.25 283.79 335.59 278.02Q330.92 272.26 330.92 263.17Q330.92 254.09 335.59 248.32Q340.25 242.55 347.51 242.55Q351.58 242.55 354.72 244.18Q357.86 245.81 360.45 249.25ZM352.18 274.68Q356.21 274.68 358.33 271.73Q360.45 268.78 360.45 263.17Q360.45 257.56 358.33 254.61Q356.21 251.67 352.18 251.67Q348.18 251.67 346.06 254.61Q343.93 257.56 343.93 263.17Q343.93 268.78 346.06 271.73Q348.18 274.68 352.18 274.68Z M440.32 255.84V259.97H406.45Q406.98 265.06 410.13 267.61Q413.29 270.16 418.95 270.16Q423.53 270.16 428.32 268.81Q433.12 267.45 438.18 264.70V275.87Q433.04 277.81 427.90 278.80Q422.76 279.79 417.62 279.79Q405.32 279.79 398.50 273.54Q391.68 267.29 391.68 256.0Q391.68 244.91 398.38 238.56Q405.07 232.21 416.81 232.21Q427.49 232.21 433.91 238.64Q440.32 245.07 440.32 255.84ZM425.43 251.02Q425.43 246.90 423.02 244.37Q420.61 241.84 416.73 241.84Q412.52 241.84 409.89 244.20Q407.26 246.57 406.61 251.02Z M495.54 228.21V236.60H488.47Q485.75 236.60 484.68 237.58Q483.61 238.57 483.61 241.00V243.78H494.54V252.93H483.61V283.79H470.82V252.93H464.46V243.78H470.82V241.00Q470.82 234.46 474.46 231.33Q478.11 228.21 485.75 228.21Z M40.44 334.80Q37.85 338.23 34.73 339.84Q31.61 341.46 27.52 341.46Q20.34 341.46 15.64 335.80Q10.95 330.14 10.95 321.38Q10.95 312.59 15.64 306.97Q20.34 301.35 27.52 301.35Q31.61 301.35 34.73 302.96Q37.85 304.57 40.44 308.04V302.22H53.05V337.50Q53.05 346.95 47.08 351.95Q41.11 356.94 29.76 356.94Q26.08 356.94 22.65 356.38Q19.21 355.82 15.75 354.66V344.89Q19.04 346.78 22.19 347.71Q25.34 348.64 28.53 348.64Q34.70 348.64 37.57 345.94Q40.44 343.24 40.44 337.50ZM32.18 310.39Q28.29 310.39 26.12 313.26Q23.94 316.13 23.94 321.38Q23.94 326.78 26.05 329.56Q28.15 332.35 32.18 332.35Q36.10 332.35 38.27 329.48Q40.44 326.60 40.44 321.38Q40.44 316.13 38.27 313.26Q36.10 310.39 32.18 310.39Z M116.11 332.57V356.94H103.25V352.97V338.36Q103.25 333.11 103.02 331.14Q102.79 329.18 102.22 328.25Q101.47 327.00 100.18 326.30Q98.89 325.61 97.25 325.61Q93.25 325.61 90.96 328.70Q88.68 331.79 88.68 337.25V356.94H75.89V301.35H88.68V322.78Q91.57 319.28 94.82 317.62Q98.07 315.96 102.00 315.96Q108.93 315.96 112.52 320.21Q116.11 324.46 116.11 332.57Z M153.61 316.92H166.39V356.94H153.61ZM153.61 301.35H166.39V311.78H153.61Z M222.36 313.48H232.32V344.08Q232.32 350.34 229.31 353.64Q226.31 356.94 220.61 356.94H215.68V350.40H217.41Q220.24 350.40 221.30 349.12Q222.36 347.84 222.36 344.08ZM222.36 301.35H232.32V309.47H222.36Z M266.05 301.35H278.84V331.61L293.56 316.92H308.42L288.88 335.29L309.95 356.94H294.45L278.84 340.25V356.94H266.05Z M345.61 301.35H358.39V356.94H345.61Z M419.75 319.41Q421.59 316.60 424.11 315.13Q426.63 313.66 429.66 313.66Q434.87 313.66 437.59 316.87Q440.32 320.09 440.32 326.21V344.62H430.60V328.86Q430.63 328.51 430.64 328.13Q430.66 327.75 430.66 327.05Q430.66 323.84 429.71 322.39Q428.77 320.95 426.66 320.95Q423.91 320.95 422.41 323.22Q420.91 325.49 420.86 329.78V344.62H411.14V328.86Q411.14 323.84 410.28 322.39Q409.41 320.95 407.20 320.95Q404.42 320.95 402.91 323.23Q401.40 325.51 401.40 329.75V344.62H391.68V314.39H401.40V318.82Q403.18 316.25 405.49 314.96Q407.79 313.66 410.57 313.66Q413.71 313.66 416.11 315.17Q418.51 316.69 419.75 319.41Z M504.32 324.46V353.92H488.77V349.12V331.37Q488.77 325.10 488.49 322.73Q488.21 320.35 487.52 319.23Q486.61 317.72 485.05 316.87Q483.50 316.03 481.51 316.03Q476.67 316.03 473.91 319.77Q471.14 323.51 471.14 330.11V353.92H455.68V305.54H471.14V312.62Q474.64 308.39 478.57 306.38Q482.51 304.37 487.26 304.37Q495.64 304.37 499.98 309.51Q504.32 314.65 504.32 324.46Z M32.06 389.17Q27.36 389.17 24.89 392.55Q22.42 395.92 22.42 402.29Q22.42 408.65 24.89 412.03Q27.36 415.40 32.06 415.40Q36.68 415.40 39.13 412.03Q41.58 408.65 41.58 402.29Q41.58 395.92 39.13 392.55Q36.68 389.17 32.06 389.17ZM32.06 379.05Q43.48 379.05 49.90 385.22Q56.32 391.38 56.32 402.29Q56.32 413.19 49.90 419.36Q43.48 425.52 32.06 425.52Q20.60 425.52 14.14 419.36Q7.68 413.19 7.68 402.29Q7.68 391.38 14.14 385.22Q20.60 379.05 32.06 379.05Z M87.41 409.30V430.08H74.76V375.45H87.41V381.24Q90.03 377.78 93.21 376.13Q96.39 374.49 100.52 374.49Q107.84 374.49 112.54 380.30Q117.24 386.12 117.24 395.27Q117.24 404.42 112.54 410.24Q107.84 416.05 100.52 416.05Q96.39 416.05 93.21 414.41Q90.03 412.76 87.41 409.30ZM95.82 383.68Q91.76 383.68 89.59 386.67Q87.41 389.65 87.41 395.27Q87.41 400.89 89.59 403.88Q91.76 406.86 95.82 406.86Q99.89 406.86 102.03 403.89Q104.16 400.93 104.16 395.27Q104.16 389.62 102.03 386.65Q99.89 383.68 95.82 383.68Z M160.18 383.62Q156.14 383.62 154.00 386.59Q151.86 389.57 151.86 395.23Q151.86 400.89 154.00 403.86Q156.14 406.83 160.18 406.83Q164.25 406.83 166.39 403.86Q168.53 400.89 168.53 395.23Q168.53 389.57 166.39 386.59Q164.25 383.62 160.18 383.62ZM168.53 409.27Q165.91 412.78 162.76 414.40Q159.61 416.03 155.47 416.03Q148.15 416.03 143.44 410.21Q138.73 404.39 138.73 395.23Q138.73 386.06 143.44 380.28Q148.15 374.49 155.47 374.49Q159.61 374.49 162.76 376.12Q165.91 377.75 168.53 381.25V375.38H181.27V430.08H168.53Z M244.16 390.58Q241.88 389.52 239.63 389.01Q237.38 388.50 235.10 388.50Q228.41 388.50 224.80 392.79Q221.19 397.08 221.19 405.07V430.08H203.84V375.80H221.19V384.72Q224.53 379.39 228.87 376.94Q233.21 374.49 239.27 374.49Q240.14 374.49 241.16 374.56Q242.17 374.64 244.11 374.88Z M308.47 377.42V390.28Q303.03 388.01 297.97 386.88Q292.92 385.74 288.43 385.74Q283.60 385.74 281.26 386.95Q278.92 388.15 278.92 390.66Q278.92 392.69 280.70 393.78Q282.47 394.86 287.05 395.38L290.03 395.81Q303.03 397.46 307.52 401.25Q312.01 405.03 312.01 413.11Q312.01 421.57 305.77 425.83Q299.53 430.08 287.15 430.08Q281.90 430.08 276.30 429.25Q270.70 428.43 264.79 426.77V413.91Q269.85 416.37 275.17 417.60Q280.48 418.83 285.97 418.83Q290.93 418.83 293.44 417.46Q295.94 416.09 295.94 413.39Q295.94 411.13 294.22 410.01Q292.49 408.90 287.34 408.29L284.36 407.91Q273.06 406.49 268.53 402.66Q263.99 398.84 263.99 391.04Q263.99 382.62 269.75 378.56Q275.52 374.49 287.43 374.49Q292.11 374.49 297.26 375.20Q302.42 375.91 308.47 377.42Z M355.23 374.49V386.78H369.49V396.68H355.23V415.04Q355.23 418.06 356.43 419.12Q357.62 420.18 361.18 420.18H368.29V430.08H356.43Q348.23 430.08 344.81 426.66Q341.39 423.24 341.39 415.04V396.68H334.51V386.78H341.39V374.49Z M391.68 407.02V377.47H407.23V382.31Q407.23 386.24 407.19 392.18Q407.14 398.12 407.14 400.10Q407.14 405.94 407.45 408.51Q407.75 411.08 408.48 412.24Q409.43 413.75 410.97 414.58Q412.50 415.40 414.49 415.40Q419.33 415.40 422.09 411.68Q424.86 407.97 424.86 401.36V377.47H440.32V425.85H424.86V418.85Q421.36 423.09 417.45 425.09Q413.54 427.10 408.83 427.10Q400.45 427.10 396.06 421.96Q391.68 416.82 391.68 407.02Z M455.68 380.91H469.35L480.0 410.46L490.61 380.91H504.32L487.48 423.67H472.48Z M7.68 459.85H17.36L22.59 481.32L27.84 459.85H36.16L41.39 481.10L46.64 459.85H56.32L48.12 491.00H37.24L31.99 469.59L26.76 491.00H15.88Z M88.06 474.93 72.45 453.79H87.09L95.94 466.62L104.91 453.79H119.55L103.94 474.85L120.32 497.06H105.68L95.94 483.39L86.32 497.06H71.68Z M137.35 447.63H150.09L160.80 474.68L169.91 447.63H182.65L165.89 491.27Q163.36 497.92 160.0 500.57Q156.64 503.22 151.12 503.22H143.75V494.86H147.74Q150.98 494.86 152.46 493.83Q153.93 492.80 154.75 490.13L155.11 489.02Z M200.89 448.24H248.32V460.38L219.68 490.19H248.32V502.61H199.68V490.48L228.32 460.67H200.89Z"/>
</svg>
