<?xml version="1.0" encoding="utf-8"?>
<!-- Mathcode MSDF source - 7x6 grid of 42 mathematical symbols -->
<!-- Glyph order: 0:∑ 1:∆ 2:∇ 3:∞ 4:≠ 5:≈ 6:∈ / 7:∉ 8:← 9:→ 10:↑ 11:↓ 12:↔ 13:↕ / 14:⇒ 15:⇔ 16:ඞ 17:∫ 18:π 19:τ 20:ψ / 21:φ 22:Ω 23:Φ 24:ε 25:β 26:α 27:Σ / 28:♬ 29:☆ 30:✮ 31:★ 32:✯ 33:✫ 34:₊ / 35:˚ 36:˙ 37:⁂ 38:◇ 39:⋄ 40:⁺ 41:𝝿 -->
<svg version="1.1" id="Layer_1" xmlns="http://www.w3.org/2000/svg"
     viewBox="0 0 512 512" width="512" height="512">
<path d="M14.779874444954832 10.239999999999995H58.50200377685908V16.94776705966416H25.17170009697341L48.527241361710814 41.867295462665226L24.407084162711172 68.42032154340835H59.40564079007809V75.09333333333332H13.737216352779054V69.91479814219363L38.934786913693664 42.075827081100385L14.779874444954832 16.39168274383708Z M109.67406243539384 21.529333608986292 92.86073185859003 65.13136792777894H126.48739301219764ZM105.2092784783957 13.042221762800636H114.21929295017573L137.50857142857143 72.2911115705327H81.92Z M182.81691957825097 63.80399972434705 199.6302501550548 20.20196540555441H166.00358900144718ZM178.35213562125284 72.2911115705327 155.06285714285713 13.042221762800636H210.65142857142857L187.36215009303288 72.2911115705327Z M259.51270593545473 54.25859625366733Q258.151532385466 52.677878582712694 255.99999999999997 48.98953735048521Q253.05810877905662 54.25859625366733 250.46748815165876 56.5857639359061Q247.2182351613631 59.395928684269904 242.1687203791469 59.395928684269904Q236.241029113067 59.395928684269904 232.3331437598736 54.96113744075828Q228.20571428571427 50.30680207628073 228.20571428571427 42.62275784247347Q228.20571428571427 35.24607537801849 232.3331437598736 30.24046941999547Q236.02148499210108 25.805678176483852 242.25653802753325 25.805678176483852Q245.46188219363572 25.805678176483852 247.83295870006768 27.122942902279384Q250.5992146242383 28.571934100654467 252.4872940645452 31.074737079665972Q254.2436470322726 33.314087113518376 255.99999999999997 36.3437959828481Q258.9418912209433 31.074737079665972 261.5325118483412 28.747569397427206Q264.78176483863683 25.937404649063403 269.831279620853 25.937404649063403Q275.75897088693296 25.937404649063403 279.6668562401264 30.37219589257503Q283.7942857142857 35.02653125705257 283.7942857142857 42.71057549085984Q283.7942857142857 50.08725795531481 279.6668562401264 55.09286391333784Q275.97851500789886 59.527655156849455 269.74346197246666 59.527655156849455Q266.5381178063642 59.527655156849455 264.1670412999323 58.21039043105392Q261.79596479350033 57.02485217783794 259.51270593545473 54.25859625366733ZM241.68572331302187 53.64387271496275Q248.9306793048973 53.64387271496275 253.27765290002253 43.1057549085985Q247.70123222748813 31.60164296998419 241.68572331302187 31.60164296998419Q237.29484089370342 31.60164296998419 235.05549085985103 34.763078311893466Q232.6405055292259 38.14405777476866 232.6405055292259 42.62275784247347Q232.6405055292259 47.540546152110124 235.05549085985103 50.57025502143984Q237.51438501466936 53.64387271496275 241.68572331302187 53.64387271496275ZM270.3142766869781 31.689460618370553Q263.7718618821936 31.689460618370553 258.7223470999774 42.22757842473481Q264.25485894831866 53.73169036334912 270.3142766869781 53.73169036334912Q274.7051591062965 53.73169036334912 276.9445091401489 50.57025502143984Q279.35949447077405 47.189275558564646 279.35949447077405 42.71057549085984Q279.35949447077405 37.79278718122319 276.9445091401489 34.763078311893466Q274.4856149853306 31.689460618370553 270.3142766869781 31.689460618370553Z M301.3485714285714 30.17875046430428H334.8231245821261L345.9234945397816 16.520092117970428L351.34359705816803 20.94289577297377L343.7988143525741 30.17875046430428H356.9371428571428V37.463368249015666H337.85838199242255L329.4030220637397 47.86996508431765H356.9371428571428V55.24130450932322H323.3758680632939L312.1887764653443 68.8132412153629L306.76867394695785 64.39043756035954L314.3134566525518 55.24130450932322H301.3485714285714V47.86996508431765H320.3406106529975L328.79597058168036 37.463368249015666H301.3485714285714Z M430.0799999999999 43.4905222494614V51.2521090557908Q425.5271138845553 54.63425302726394 421.6463204813906 56.1302013223386Q417.76552707822594 57.62614961741326 413.559527523958 57.62614961741326Q408.789837307778 57.62614961741326 402.45915756630257 55.067861228734856Q402.0255493648317 54.89441794814649 401.72202362380204 54.76433548770521Q401.46185870291947 54.67761384741103 400.8114464007131 54.41744892652848Q394.0905192779139 51.772438897555894 390.0146021840873 51.772438897555894Q386.19885001114324 51.772438897555894 382.4698194784934 53.42015006314537Q378.7407889458435 55.067861228734856 374.4914285714285 58.71017012109055V50.94858331476115Q379.0443146868731 47.56643934328801 382.92510809003784 46.07049104821335Q386.80590149320255 44.57454275313869 391.0119010474704 44.57454275313869Q395.7815912636505 44.57454275313869 402.15563182527296 47.13283114181709Q402.63260084689097 47.34963524255255 402.8494049476264 47.43635688284674Q403.10956986850897 47.52307852314092 403.7599821707154 47.78324344402347Q410.4809092935145 50.428253472996055 414.5568263873412 50.428253472996055Q418.28585691999103 50.428253472996055 421.94984622242026 48.80222271748012Q425.6138355248495 47.176191961964186 430.0799999999999 43.4905222494614ZM430.0799999999999 26.623163212242765V34.34138919842507Q425.5271138845553 37.76689399004531 421.6463204813906 39.26284228511997Q417.76552707822594 40.75879058019463 413.559527523958 40.75879058019463Q408.789837307778 40.75879058019463 402.45915756630257 38.20050219151622Q402.0255493648317 38.027058910927856 401.72202362380204 37.896976450486584Q401.46185870291947 37.8102548101924 400.8114464007131 37.55008988930985Q394.0905192779139 34.90507986033726 390.0146021840873 34.90507986033726Q386.19885001114324 34.90507986033726 382.4698194784934 36.55279102592674Q378.7407889458435 38.20050219151622 374.4914285714285 41.79945026372482V34.081224277542525Q379.0443146868731 30.699080306069376 382.92510809003784 29.203132010994718Q386.80590149320255 27.70718371592006 391.0119010474704 27.70718371592006Q395.7815912636505 27.70718371592006 402.15563182527296 30.26547210459846Q402.5892400267439 30.43891538518683 402.8060441274793 30.52563702548101Q403.10956986850897 30.655719485922283 403.7599821707154 30.915884406804835Q410.4809092935145 33.56089443577742 414.5568263873412 33.56089443577742Q418.28585691999103 33.56089443577742 421.94984622242026 31.934863680261486Q425.6138355248495 30.308832924745552 430.0799999999999 26.623163212242765Z M454.14675433353256 46.1554891412632Q454.41810719266783 49.02407650926479 456.8602829248854 53.675839808726835Q459.728870292887 59.06413229727037 465.1559274755927 62.0877784419207Q470.46669057581187 65.03389519824665 476.2038653118151 65.07265989240884H503.2228571428571V71.23624626419605H476.2038653118151Q468.7610440326758 71.23624626419605 461.8803108188882 67.39854154213987Q454.99957760510057 63.56083682008368 451.3169316596931 56.738250647539346Q447.6342857142857 49.91566447499502 447.6342857142857 42.666666666666664Q447.6342857142857 35.49519824666268 451.3169316596931 28.67261207411835Q454.99957760510057 21.85002590157402 461.8803108188882 17.97355648535565Q468.7610440326758 14.097087069137281 476.2038653118151 14.097087069137281H503.2228571428571V20.260673440924485H476.2038653118151Q470.46669057581187 20.299438135086668 465.1559274755927 23.284319585574814Q459.7676349870492 26.34673042438733 456.8602829248854 31.696258218768676Q454.37934249850565 36.34802151823072 454.030460251046 39.9531380753138H503.2228571428571V46.1554891412632Z M47.889863877346315 95.57333333333332 52.768499785069494 97.36216649949849 50.394230309977544 103.93206285523235H59.891308210345315V109.10341691741891H48.507824425657915L42.490840139466016 125.62573052490804H59.891308210345315V130.82960882647942H40.60443425514639L34.880168123417874 146.53881644934802Q36.051040741271436 146.70143764627213 37.22191335912499 146.70143764627213H59.891308210345315V151.8727917084587H37.22191335912499Q35.10783779911162 151.8727917084587 33.058810717867885 151.51502507522565L29.806386779385775 160.42666666666665L24.927750871662607 158.63783350050147L28.050077852605433 150.05143430290872Q26.619011319673305 149.43347375459712 25.187944786741177 148.6528920093614Q19.431154415627837 145.4329923102641 16.34135167406983 139.70872617853558Q13.251548932511824 133.98446004680707 13.251548932511824 127.90242728184552Q13.251548932511824 121.88544299565362 16.34135167406983 116.16117686392509Q19.431154415627837 110.43691073219657 25.204206906433587 107.18448679371446Q30.977259397239337 103.93206285523235 37.22191335912499 103.93206285523235H44.83258537517314ZM18.715621149161773 130.82960882647942Q18.715621149161773 133.2364025409562 20.992317906099252 137.13931126713473Q23.756878253809045 141.85532597793377 27.952505134450973 144.1970712136409Q28.895708076610784 144.71745904379804 29.838911018770595 145.1402741558007L35.04278932034198 130.82960882647942ZM36.96171944404642 125.62573052490804 42.94617949085351 109.10341691741891H37.22191335912499Q32.440850169556285 109.10341691741891 27.952505134450973 111.64030758943497Q23.886975211348332 113.94952858575726 20.992317906099252 118.69806753594114Q18.61804843100731 122.60097626211967 18.61804843100731 125.62573052490804Z M81.91999999999999 129.6687696559611V126.33123034403889L96.4939216620604 111.75730868197847L100.94397407795671 116.20736109787478L92.30345563709137 124.84787953874013H137.50857142857143V131.1521204612599H92.30345563709137L100.94397407795671 139.79263890212525L96.4939216620604 144.24269131802154Z M210.65142857142857 126.33123034403889V129.6687696559611L196.07750690936814 144.24269131802154L191.62745449347182 139.79263890212525L200.26797293433717 131.1521204612599H155.06285714285713V124.84787953874013H200.26797293433717L191.62745449347182 116.20736109787478L196.07750690936814 111.75730868197847Z M254.09763555555554 95.57333333333332H257.98883555555557L274.93717333333336 112.60814222222221L269.74890666666664 117.79640888888888L259.7182577777778 107.67928888888888V160.42666666666665H252.36821333333333V107.67928888888888L242.25109333333333 117.79640888888888L237.06282666666667 112.60814222222221Z M331.1316926984127 160.42666666666665H327.2404926984127L310.2056838095238 143.39185777777777L315.39395047619047 138.2035911111111L325.51107047619047 148.3207111111111V95.57333333333334H332.8611149206349V148.3207111111111L342.8917638095238 138.2035911111111L348.0800304761905 143.39185777777777Z M374.4914285714285 129.6500565397663V126.34994346023369L388.9019223520542 111.93944967960797L393.3020731247643 116.33960045231812L384.7584470410855 124.88322653599698H419.81298153034294L411.26935544666406 116.33960045231812L415.6695062193742 111.93944967960797L430.0799999999999 126.34994346023369V129.6500565397663L415.6695062193742 144.060550320392L411.26935544666406 139.66039954768186L419.81298153034294 131.11677346400302H384.7584470410855L393.3020731247643 139.66039954768186L388.9019223520542 144.060550320392Z M473.54752550459864 95.57333333333331H477.3951194399975L494.15352858084566 112.41724456163479L489.02340333364725 117.5473698088332L479.1051611890636 107.54362557679629V148.45637442320367L489.02340333364725 138.45263019116675L494.15352858084566 143.58275543836515L477.3951194399975 160.42666666666665H473.54752550459864L456.7036142762972 143.58275543836515L461.83373952349564 138.45263019116675L471.8374837555325 148.45637442320367V107.54362557679629L461.83373952349564 117.5473698088332L456.7036142762972 112.41724456163479Z M53.240583245973504 217.2271291972426 57.13437910988277 213.33333333333331 53.240583245973504 209.43953746942407H8.777142857142852V204.98948505352774H48.79053083007719L45.341740207757546 201.5406944312081L49.79179262365386 197.0906420153118L64.36571428571429 211.6645636773722V215.00210298929443L49.79179262365386 229.57602465135486L45.341740207757546 225.12597223545856L48.79053083007719 221.6771816131389H8.777142857142852V217.2271291972426Z M92.92037693177535 217.1834652594547H126.50819449679608L130.35832642291746 213.33333333333334L126.50819449679608 209.48320140721196H92.92037693177535L89.07024500565397 213.33333333333334ZM122.10804372408595 221.58361603216485H97.32052770448549L100.73064455333585 224.9937328810152L96.3304937806257 229.39388365372534L81.92 214.98338987309964V211.68327679356705L96.3304937806257 197.27278301294132L100.73064455333585 201.67293378565148L97.32052770448549 205.08305063450183H122.10804372408595L118.69792687523558 201.67293378565148L123.09807764794571 197.27278301294132L137.50857142857143 211.68327679356705V214.98338987309964L123.09807764794571 229.39388365372534L118.69792687523558 224.9937328810152Z M194.21068744588743 241.8688Q190.10050216450216 241.8688 187.5737489177489 240.11691774891773Q185.04699567099567 238.3650354978355 183.2951134199134 235.93935238095239Q181.61061125541124 238.4324155844156 179.05016796536796 240.15060779220778Q176.48972467532465 241.8688 171.90787878787876 241.8688Q165.97843116883115 241.8688 162.2051463203463 238.49979567099567Q158.43186147186145 235.13079134199134 158.43186147186145 228.7970632034632Q158.43186147186145 225.8323393939394 159.34149264069262 223.6424865800866Q160.2511238095238 221.45263376623376 161.93562597402595 219.8355116883117Q163.8222683982684 218.01624935064936 166.82068225108225 216.6349575757576Q169.8190961038961 215.2536658008658 172.91858008658008 214.37772467532469L175.00736277056276 213.7713038961039Q178.64588744588744 212.69322251082252 180.16193939393938 211.81728138528138Q181.67799134199132 210.94134025974026 181.67799134199132 208.85255757575757Q181.67799134199132 207.03329523809523 180.16193939393938 206.05628398268396Q178.64588744588744 205.07927272727272 176.15282424242423 204.70868225108225Q173.65976103896102 204.33809177489178 170.56027705627704 204.33809177489178Q170.15599653679652 204.33809177489178 169.95385627705627 204.33809177489178Q170.7624173160173 205.48355324675325 171.0656277056277 206.864845021645Q171.3688380952381 208.2461367965368 171.3688380952381 209.18945800865802Q171.3688380952381 212.01942164502165 170.0549264069264 213.67023376623376Q168.7410147186147 215.32104588744588 166.8543722943723 216.0285367965368Q164.96772987012986 216.7360277056277 163.08108744588742 216.7360277056277Q159.57732294372292 216.7360277056277 157.32009004329 214.81569523809523Q155.06285714285713 212.89536277056277 155.06285714285713 209.39159826839827Q155.06285714285713 205.2140329004329 158.83614199134198 202.5525194805195Q162.60942683982682 199.89100606060606 170.62765714285712 199.89100606060606Q175.34426320346319 199.89100606060606 178.9490978354978 200.76694718614718Q182.55393246753246 201.6428883116883 184.57533506493508 203.63060086580086Q186.59673766233766 205.61831341991342 186.59673766233766 208.91993766233767Q186.59673766233766 211.07610043290043 185.78817662337661 212.62584242424242Q184.97961558441557 214.1755844155844 182.78976277056276 215.38842597402598Q180.59990995670995 216.60126753246755 176.2875844155844 217.8814891774892L172.7838199134199 218.89219047619048Q170.15599653679652 219.63337142857142 168.03352380952379 220.879903030303Q165.91105108225108 222.12643463203463 164.6308294372294 224.0467670995671Q163.35060779220777 225.96709956709958 163.35060779220777 228.7970632034632Q163.35060779220777 232.90724848484848 165.6415307359307 234.99603116883117Q167.93245367965366 237.08481385281385 172.04263896103896 237.08481385281385Q177.2982857142857 237.08481385281385 179.1849281385281 234.35592034632035Q181.07157056277055 231.62702683982684 181.07157056277055 227.11256103896105V226.70828051948052H185.65341645021644V227.11256103896105Q185.65341645021644 231.4248865800866 187.47267878787878 234.25485021645022Q189.29194112554111 237.08481385281385 194.14330735930736 237.08481385281385Q197.44493160173158 237.08481385281385 200.00537489177486 235.29924155844157Q202.56581818181817 233.51366926406928 204.08187012987014 229.30241385281386Q205.59792207792208 225.09115844155843 205.59792207792208 217.8814891774892Q205.59792207792208 204.00119134199133 199.63478441558442 196.75783203463203Q193.67164675324673 189.51447272727273 181.67799134199132 189.51447272727273Q175.47902337662336 189.51447272727273 170.56027705627704 190.92945454545455Q165.64153073593073 192.34443636363636 161.26182510822508 194.90487965367964L159.03828225108222 190.52517402597402Q164.02440865800864 187.82997056277057 169.44850562770563 186.3139186147186Q174.8726025974026 184.79786666666666 182.01489177489177 184.79786666666666Q190.8416831168831 184.79786666666666 197.2764813852814 188.30163116883116Q203.71127965367964 191.80539567099567 207.18135411255412 199.08244502164501Q210.65142857142857 206.35949437229436 210.65142857142857 217.6793489177489Q210.65142857142857 226.57352034632035 208.52895584415583 231.8965471861472Q206.4064831168831 237.21957402597403 202.70057835497835 239.544187012987Q198.99467359307357 241.8688 194.21068744588743 241.8688ZM159.84684329004327 208.98731774891775Q159.84684329004327 210.3349194805195 160.62171428571426 211.34562077922078Q161.39658528138526 212.35632207792207 163.2832277056277 212.35632207792207Q166.7869922077922 212.35632207792207 166.7869922077922 208.91993766233767Q166.7869922077922 208.11137662337663 166.51747186147185 206.864845021645Q166.2479515151515 205.61831341991342 165.43939047619045 204.60761212121213Q162.2051463203463 205.07927272727272 161.02599480519478 206.39318441558441Q159.84684329004327 207.7070961038961 159.84684329004327 208.98731774891775Z M254.35007892527287 190.70817800167924Q254.6114525608732 185.25200335852224 257.2578606213266 183.07933501259447Q259.90426868178 180.90666666666667 262.3709823677582 180.90666666666667Q264.83769605373635 180.90666666666667 266.896013434089 182.9486481947943Q268.9543308144416 184.9906297229219 269.60776490344244 189.56466834592777L264.77235264483625 190.05474391267842Q264.21693366918555 185.80742233417297 262.35464651553315 185.80742233417297Q260.0349554995802 185.80742233417297 259.7735818639798 191.5249706129303L257.6499210747271 235.95848866498739Q257.3885474391268 241.4146633081444 254.7421393786734 243.58733165407222Q252.09573131821998 245.76 249.6290176322418 245.76Q247.16230394626362 245.76 245.103986565911 243.71801847187237Q243.04566918555835 241.67603694374475 242.3922350965575 237.10199832073886L247.22764735516373 236.61192275398824Q247.78306633081442 240.8592443324937 249.64535348446682 240.8592443324937Q251.9650445004198 240.8592443324937 252.22641813602013 235.14169605373635Z M301.3485714285714 184.10141215106734H355.47428571428566V193.38298850574714H348.36177339901474V228.08801313628902Q348.36177339901474 231.71993431855503 349.59763546798024 233.3088998357964Q350.8334975369458 234.8978653530378 353.60788177339896 234.8978653530378Q354.3645320197044 234.8978653530378 355.47428571428566 234.77175697865354Q356.58403940886694 234.6456486042693 356.9371428571428 234.5952052545156V241.304170771757Q355.1716256157635 241.959934318555 353.3052216748768 242.2625944170772Q351.4388177339901 242.56525451559935 349.5724137931034 242.56525451559935Q343.51921182266005 242.56525451559935 341.1988177339901 239.26121510673235Q338.87842364532014 235.95717569786535 338.87842364532014 227.07914614121512V193.38298850574714H318.0453201970443V240.59796387520527H308.5619704433497V193.38298850574714H301.3485714285714Z M409.0392144931544 232.49067256718757Q410.97647351680257 235.0736845987185 416.78825058774714 235.0736845987185H421.5775853962107V243.46847370119394H415.60437007329546Q405.9180749550545 243.46847370119394 401.50542940118925 238.30244963813212Q397.092783847324 233.0288000737565 397.092783847324 221.620496934495V193.09973908634123H374.4914285714285V183.19819296547274H430.0799999999999V193.09973908634123H407.20958097082V222.21243719172085Q407.20958097082 230.01528603697045 409.0392144931544 232.49067256718757Z M471.59022731472925 228.93840448469166Q461.89998151912766 227.38628719275547 457.41142610731225 223.3172229409228Q451.9160919115382 218.32527813712807 451.9160919115382 208.1316429495472V180.90666666666667H459.71862748721736V207.83799913755928Q459.71862748721736 215.51468736524362 463.28430234707076 218.70282018111254Q466.38853693094313 221.47146183699869 471.59022731472925 222.05874946097455V180.90666666666667H479.2669155424136V222.01680034497628Q484.7622497381876 221.4295127210004 487.57284051007207 218.66087106511426Q491.1385153699254 215.13714532125914 491.1385153699254 207.796050021561V180.90666666666667H498.9410509456046V208.08969383354895Q498.9410509456046 218.66087106511426 493.4457167498306 223.2752738249245Q488.4957210620341 227.42823630875375 479.2669155424136 228.89645536869338V245.76H471.59022731472925Z M43.102668382668384 272.79210639210635Q40.39001287001287 272.79210639210635 40.39001287001287 278.84341484341485V307.47236379236375Q44.354663234663235 307.47236379236375 48.319313599313595 303.13211497211495Q51.86663234663234 299.2509309309309 51.86663234663234 289.94443586443583Q51.86663234663234 281.2639382239382 48.27758043758043 276.58982410982406Q45.35625911625911 272.79210639210635 43.102668382668384 272.79210639210635ZM43.102668382668384 266.24Q48.94531102531102 266.24 54.245422565422565 271.7487773487773Q59.96286572286572 277.6331531531531 59.96286572286572 289.94443586443583Q59.96286572286572 301.25412269412266 54.245422565422565 307.9731617331617Q48.861844701844696 314.3166023166023 40.39001287001287 314.3166023166023V331.0933333333333H32.75284427284427V314.35833547833545Q24.447945087945087 314.35833547833545 18.855701415701414 307.9731617331617Q13.17999141999142 301.4627885027885 13.17999141999142 289.986169026169Q13.17999141999142 278.05048477048473 18.855701415701414 271.95744315744315Q23.11248391248391 267.4085285285285 30.04018876018876 266.24V273.0425053625053Q27.285800085800084 274.00236808236804 24.865276705276703 277.25755469755467Q21.276224796224795 282.0568682968683 21.276224796224795 289.986169026169Q21.276224796224795 298.41626769626765 24.865276705276703 303.2155812955813Q28.078730158730156 307.51409695409694 32.75284427284427 307.51409695409694V278.84341484341485Q32.75284427284427 266.24 43.102668382668384 266.24Z M137.50857142857143 321.45048497752543V328.47302984217106H113.83707188482205V321.45048497752543Q120.82016425022812 317.6235925512859 124.72596167494675 311.0744776775153Q128.6317590996654 304.5253628037446 128.6317590996654 296.555957957349Q128.6317590996654 287.08735813984924 123.42402920004054 281.3667457501098Q118.21629930041567 275.6461333603704 109.6945594646659 275.6461333603704Q101.17281962891613 275.6461333603704 95.94536347967147 281.3864719997296Q90.71790733042683 287.12681063908883 90.71790733042683 296.555957957349Q90.71790733042683 304.5253628037446 94.62370475514548 311.0744776775153Q98.56895467910371 317.6235925512859 105.59149954374935 321.45048497752543V328.47302984217106H81.91999999999999V321.45048497752543H94.50534725742673Q88.27185237757273 315.9665875832235 85.39181993308323 310.0881651965257Q82.5512399878333 304.20974280982796 82.5512399878333 296.9504829497448Q82.5512399878333 284.40458819155765 90.1261198418331 276.6324458413599Q97.66154719659332 268.86030349116226 109.6945594646659 268.86030349116226Q121.64866673425934 268.86030349116226 129.2629990874987 276.6324458413599Q136.8378789414985 284.36513569231806 136.8378789414985 296.555957957349Q136.8378789414985 304.20974280982796 134.03675149548818 310.04871269728613Q131.23562404947785 315.8876825847443 124.8837716719051 321.45048497752543Z M178.8348149679553 281.793001171525Q172.80132313417405 282.6376900282544 168.85944180277028 286.1371152918475Q163.63041554682653 290.7627923644132 163.63041554682653 298.7270015850045Q163.63041554682653 306.65098752670383 168.85944180277028 311.2766645992695Q172.80132313417405 314.77608986286265 178.8348149679553 315.620778719592ZM186.9599173041141 315.620778719592Q192.99340913789536 314.77608986286265 196.93529046929913 311.2766645992695Q202.08387016745914 306.65098752670383 202.08387016745914 298.7270015850045Q202.08387016745914 290.7627923644132 196.93529046929913 286.1371152918475Q192.99340913789536 282.6376900282544 186.9599173041141 281.793001171525ZM178.8348149679553 322.33806629453517Q169.0203349183378 321.4531541589139 162.6650568534215 316.0632347874026Q155.06285714285713 309.62751016470264 155.06285714285713 298.7270015850045Q155.06285714285713 287.8264930053063 162.6650568534215 281.3505451037144Q168.9801116394459 275.9204024533113 178.8348149679553 275.03549031769V268.6399889738819H186.9599173041141V275.03549031769Q196.77439735373162 275.96062573220314 203.08945213975602 281.3505451037144Q210.65142857142854 287.8264930053063 210.65142857142854 298.7270015850045Q210.65142857142854 309.5872868858107 203.08945213975602 316.0632347874026Q196.77439735373162 321.4531541589139 186.9599173041141 322.378289573427V328.69334435945143H178.8348149679553Z M247.43186632681957 296.21469272160857Q241.26060606060605 294.89227980742 237.95457377513452 291.31074483149246Q234.64854148966296 287.78431039365614 234.64854148966296 282.6599603511753Q234.64854148966296 274.89078448031717 240.9300028320589 270.537841971113Q247.1563636363636 266.23999999999995 257.9560691022373 266.23999999999995Q262.14370999716795 266.23999999999995 266.8272557349193 266.9012064570943Q271.5108014726706 267.5624129141886 276.91065420560744 268.8848258283772V278.08661568960633Q271.5659020107618 276.48870008496175 267.1578589634664 275.77239308977624Q262.6947153780799 275.05608609459074 258.7825771736052 275.05608609459074Q252.2256131407533 275.05608609459074 248.42367601246104 277.59071084678556Q244.56663834607758 280.1253355989804 244.56663834607758 283.65177003681674Q244.56663834607758 287.5088077032002 248.31347493627865 289.98833191730387Q252.00521098838854 292.4127555933163 258.39687340696685 292.4127555933163H266.93745681110164V300.78803738317754H258.7825771736052Q251.23380345511185 300.78803738317754 247.266564712546 303.59816482582835Q242.968722741433 306.6837949589351 242.968722741433 311.53264231096006Q242.968722741433 316.4916907391673 247.59716794109315 319.57732087227413Q252.2807136788445 322.6629510053809 260.6008949306145 322.6629510053809Q265.7252449730954 322.6629510053809 270.40879071084674 321.67114131973943Q275.09233644859813 320.6242310960068 279.00447465307275 318.58551118663263V328.0077032002265Q274.0454262248655 329.55051826677993 269.4169810252053 330.3219258000566Q264.733435287454 331.0933333333333 260.3253922401586 331.0933333333333Q247.21146417445482 331.0933333333333 240.103494760691 326.0791843670348Q232.9955253469272 321.0650354007363 232.9955253469272 311.53264231096006Q232.9955253469272 305.5817841971113 236.79746247521945 301.55944491645425Q240.59939960351173 297.5371056357972 247.43186632681957 296.21469272160857Z M319.4229841269841 315.00190476190477V331.09333333333336H313.40901587301585V281.06361904761906Q313.40901587301585 266.24 327.25739682539677 266.24Q341.3658412698412 266.24 341.3658412698412 278.7555555555556Q341.3658412698412 287.66273015873014 335.77447619047615 290.91352380952384Q344.8766984126984 293.8392380952381 344.8766984126984 302.51885714285714Q344.8766984126984 317.92761904761903 329.20787301587296 317.92761904761903Q322.31619047619046 317.92761904761903 319.4229841269841 315.00190476190477ZM319.4229841269841 307.2Q323.03136507936506 312.823873015873 329.43542857142853 312.823873015873Q338.7977142857143 312.823873015873 338.7977142857143 302.61638095238095Q338.7977142857143 293.4491428571429 323.7140317460317 294.1643174603175V288.63796825396827Q335.5144126984127 288.63796825396827 335.5144126984127 278.2354285714286Q335.5144126984127 271.11619047619047 327.9075555555555 271.11619047619047Q319.4229841269841 271.11619047619047 319.4229841269841 281.25866666666667Z M410.26528533801576 300.5700505873991 408.11787783770217 289.2961612107529Q405.9216656214724 277.7294435386094 397.2344261883857 277.7294435386094Q390.6945942556126 277.7294435386094 387.71750658472337 283.0979622893933Q383.95954345917465 289.83301308583134 383.95954345917465 298.71547138258285Q383.95954345917465 309.45250888415063 387.6198971528909 314.5770040553534Q391.3290555625235 319.7991086583887 397.2344261883857 319.7991086583887Q403.7742581211588 319.7991086583887 407.2881976671265 309.4037041682344ZM415.2921710773861 285.63580751703665 420.12383795309165 271.336025753585H428.12781136335127L418.1228446005267 300.9604883147288L420.0750332371754 311.6487211003804Q420.51427568042135 314.0401521802751 422.22244073748897 316.04114553283995Q424.22343409005384 318.3837718968184 425.7851849993728 318.3837718968184H430.0799999999999V325.9973075797483H424.71148124921604Q420.12383795309165 325.9973075797483 416.02424181612935 321.89771144278603Q414.02324846356447 319.8479133743049 413.1935682929888 315.5530983736778Q410.94855136084277 320.9704218403779 406.3609080647184 325.21643212508883Q404.2135005644048 327.2174254776537 397.2344261883857 327.2174254776537Q385.7653179480747 327.2174254776537 380.20158033362594 319.7991086583887Q374.4914285714285 312.1367682595426 374.4914285714285 298.71547138258285Q374.4914285714285 284.366884903215 380.6896274927881 277.631834106777Q387.5710924369747 270.11590785567955 397.2344261883857 270.11590785567955Q412.4126928383293 270.11590785567955 415.2921710773861 285.63580751703665Z M464.61244282843745 323.70882786336233H496.3223780818422V331.0933333333333H454.5347647753006V323.70882786336233L475.3416948936306 296.6033489618218L454.5347647753006 273.6245054699709V266.24H495.5404892673747V273.6245054699709H464.61244282843745L485.41937294676745 296.42959589194015Z M64.21331244492313 355.36750416136294 64.36571428571429 355.51990600215413V403.60268677176146Q64.36571428571429 411.7180847938901 54.42149417409184 412.51819445804364Q45.54408694800744 412.51819445804364 44.85827866444727 406.2697189856066Q44.85827866444727 401.01185547831193 53.73568589053168 400.47844903554295Q57.88863605209047 400.47844903554295 60.898572407715655 402.72637618721234H61.012873788309015V377.54197199647507H28.284578478409866V403.37408401057473Q27.97977479682757 411.26087927151667 18.759463428963084 412.632495838637H18.607061588171934Q8.777142857142852 412.632495838637 8.777142857142852 405.8887143836287Q8.777142857142852 401.1261568589053 17.768851463820617 400.5165494957407Q21.57889748359933 400.5165494957407 24.9317379810046 402.9549789483991V355.36750416136294ZM28.284578478409866 363.2542994223049V369.1979712131597H61.012873788309015V363.2542994223049Z M81.91999999999999 377.7684149226569H103.12863330300272L109.71428571428571 357.621983621474L116.33534485896269 377.7684149226569H137.50857142857143L120.37171246587806 390.26699181073695L126.95736487716104 410.3780163785259L109.71428571428571 397.9148462238398L92.50661328480436 410.3780163785259L99.05685896269335 390.26699181073695ZM101.46451683348498 389.5234504094631 96.50757415832575 404.8899727024567 109.71428571428571 395.4009681528662 123.31047133757961 405.38566696997265 117.92864786169244 389.4526369426751 132.05593448589627 379.5387515923566H114.84826205641491L109.71428571428571 363.995195632393L104.68652957233849 379.5387515923566H87.40804367606914Z M182.85714285714283 380.9289029982363 184.16107231040561 384.97794708994707H188.41599999999997L184.98460670194 387.48286419753083L186.2885361552028 391.5319082892416L182.85714285714283 389.0269911816578L179.42574955908287 391.5319082892416L180.72967901234566 387.48286419753083L177.2982857142857 384.97794708994707H181.55321340388005ZM182.85714285714283 357.5611146384479 189.41110405643735 377.7720211640211H210.65142857142854L193.49446208112872 390.2622927689594L200.04842328042326 410.43888536155197L182.85714285714283 397.9486137566137L165.6658624338624 410.43888536155197L172.21982363315695 390.2622927689594L155.06285714285713 377.7720211640211H176.3031816578483ZM182.85714285714283 369.1592239858906 178.91104056437388 381.3406701940035H166.0776296296296L176.4747513227513 388.8554215167548L172.46002116402116 401.0368677248677L182.85714285714283 393.52211640211635L193.25426455026454 401.0368677248677L189.23953439153436 388.8554215167548L199.63665608465607 381.3406701940035H186.8032451499118Z M228.20571428571427 377.7684149226569H249.414347588717L256.0 357.621983621474L262.62105914467696 377.7684149226569H283.7942857142857L266.6574267515923 390.26699181073695L273.24307916287535 410.3780163785259L256.0 397.9148462238398L238.79232757051864 410.3780163785259L245.34257324840763 390.26699181073695Z M316.20650440917103 404.5368888888888Q316.20650440917103 404.5368888888888 329.10854320987653 395.16918518518514Q329.10854320987653 395.16918518518514 329.10854320987653 386.83089947089945Q329.10854320987653 386.83089947089945 316.20650440917103 404.5368888888888ZM308.2456719576719 380.0024268077601Q308.2456719576719 380.0024268077601 321.1477107583774 389.3701305114638Q321.1477107583774 389.3701305114638 329.10854320987653 386.7965855379188Q329.10854320987653 386.7965855379188 308.2456719576719 380.0024268077601ZM342.0792098765432 404.5368888888888Q342.0792098765432 404.5368888888888 337.1380035273368 389.4044444444444Q337.1380035273368 389.4044444444444 329.1771710758377 386.83089947089945Q329.1771710758377 386.83089947089945 342.0792098765432 404.5368888888888ZM350.0400423280423 380.0024268077601Q350.0400423280423 380.0024268077601 334.0840634920635 380.0024268077601Q334.0840634920635 380.0024268077601 329.1771710758377 386.7965855379188Q329.1771710758377 386.7965855379188 350.0400423280423 380.0024268077601ZM329.1428571428571 364.83566843033503Q329.1428571428571 364.83566843033503 324.2359647266314 379.9681128747795Q324.2359647266314 379.9681128747795 329.1428571428571 386.76227160493823Q329.1428571428571 386.76227160493823 329.1428571428571 364.83566843033503ZM329.1428571428571 357.5611146384479 335.69681834215163 377.7720211640211H356.9371428571428L339.780176366843 390.2622927689594L346.33413756613754 410.43888536155197L329.1428571428571 397.9486137566137L311.9515767195767 410.43888536155197L318.5055379188712 390.2622927689594L301.3485714285714 377.7720211640211H322.5888959435626Z M398.03078659611987 376.4337777777777Q396.0748924162257 377.32594003527333 394.4278236331569 378.8700670194003Q392.7807548500881 380.5857636684303 391.99153439153434 382.5073439153439Q391.16799999999995 384.53186596119923 391.16799999999995 386.7965855379188Q391.16799999999995 389.0269911816578 391.99153439153434 391.05151322751317Q392.7807548500881 392.9730934744268 394.4278236331569 394.6887901234567Q396.0748924162257 396.2329171075837 398.03078659611987 397.12507936507933Q399.98668077601405 397.9486137566137 402.2857142857142 397.9486137566137Q404.5847477954144 397.9486137566137 406.5406419753086 397.12507936507933Q408.49653615520276 396.2329171075837 410.14360493827155 394.6887901234567Q411.79067372134034 392.9730934744268 412.5798941798941 391.05151322751317Q413.4034285714285 389.0269911816578 413.4034285714285 386.7965855379188Q413.4034285714285 384.53186596119923 412.5798941798941 382.5073439153439Q411.79067372134034 380.5857636684303 410.14360493827155 378.8700670194003Q408.49653615520276 377.32594003527333 406.5406419753086 376.4337777777777Q404.5847477954144 375.6102433862433 402.2857142857142 375.6102433862433Q399.98668077601405 375.6102433862433 398.03078659611987 376.4337777777777ZM402.2857142857142 357.5611146384479 408.83967548500874 377.7720211640211H430.0799999999999L412.92303350970013 390.2622927689594L419.47699470899465 410.43888536155197L402.2857142857142 397.9829276895943L385.0944338624338 410.43888536155197L391.6483950617283 390.2622927689594L374.4914285714285 377.7720211640211H395.7317530864197Z M479.0449283058948 359.23656576385196V380.72805806337396H503.2228571428571V387.27194193662586H479.0449283058948V408.76343423614793H471.81221455124796V387.27194193662586H447.6342857142857V380.72805806337396H471.81221455124796V359.23656576385196Z M51.990156412930126 469.2826138338547Q51.990156412930126 462.8919568995482 47.52684045881126 458.4286409454293Q43.06352450469239 453.96532499131047 36.57142857142857 453.96532499131047Q29.977893639207508 453.96532499131047 25.565297184567257 458.37792144595073Q21.152700729927005 462.79051790059094 21.152700729927005 469.2826138338547Q21.152700729927005 475.87614876607586 25.565297184567257 480.2887452207161Q29.977893639207508 484.70134167535633 36.57142857142857 484.70134167535633Q43.06352450469239 484.70134167535633 47.52684045881126 480.2380257212375Q51.990156412930126 475.77470976711857 51.990156412930126 469.2826138338547ZM64.36571428571429 469.2826138338547Q64.36571428571429 480.9480987139382 56.301313868613136 489.06321863051795Q48.23691345151199 497.1783385470977 36.57142857142857 497.1783385470977Q24.90594369134515 497.1783385470977 16.841543274244003 489.06321863051795Q8.777142857142856 480.9480987139382 8.777142857142856 469.2826138338547Q8.777142857142856 457.6171289537714 16.841543274244003 449.5527285366702Q24.90594369134515 441.488328119569 36.57142857142857 441.488328119569Q48.23691345151199 441.488328119569 56.301313868613136 449.5527285366702Q64.36571428571429 457.6171289537714 64.36571428571429 469.2826138338547Z M81.91999999999999 441.53904761904766H137.5085714285714V497.1276190476191H81.91999999999999Z M181.09654947337188 475.1634950304109 170.73502447708054 480.7627592345349 181.09654947337188 486.39088562527814 179.42254264945853 489.2193799139593 169.72484794540867 483.36035603026255V494.2414003856994H166.43455867082034V483.36035603026255L156.7368639667705 489.2193799139593L155.06285714285713 486.39088562527814L165.42438213914846 480.7627592345349L155.06285714285713 475.1634950304109L156.7368639667705 472.30613855511046L166.43455867082034 478.1651624388073V467.2841180833704H169.72484794540867V478.1651624388073L179.42254264945853 472.30613855511046ZM210.65142857142854 475.1634950304109 200.2899035751372 480.7627592345349 210.65142857142854 486.39088562527814 208.97742174751517 489.2193799139593 199.27972704346533 483.36035603026255V494.2414003856994H195.989437768877V483.36035603026255L186.29174306482716 489.2193799139593L184.61773624091379 486.39088562527814L194.97926123720515 480.7627592345349L184.61773624091379 475.1634950304109L186.29174306482716 472.30613855511046L195.989437768877 478.1651624388073V467.2841180833704H199.27972704346533V478.1651624388073L208.97742174751517 472.30613855511046ZM195.87398902240022 452.3046432280077 185.5124640261089 457.9039074321317 195.87398902240022 463.53203382287495 194.19998219848685 466.3605281115561 184.502287494437 460.50150422785936V471.3825485832962H181.21199821984868V460.50150422785936L171.51430351579884 466.3605281115561L169.84029669188547 463.53203382287495L180.20182168817684 457.9039074321317L169.84029669188547 452.3046432280077L171.51430351579884 449.4472867527073L181.21199821984868 455.3063106364041V444.4252662809672H184.502287494437V455.3063106364041L194.19998219848685 449.4472867527073Z M233.61164061785942 469.33333333333326Q233.61164061785942 469.33333333333326 255.98221734759161 491.8106059775157Q255.98221734759161 491.8106059775157 278.38835938214055 469.33333333333326Q278.38835938214055 469.33333333333326 255.98221734759161 446.85606068915087Q255.98221734759161 446.85606068915087 233.61164061785942 469.33333333333326ZM228.20571428571427 469.33333333333326Q228.20571428571427 469.33333333333326 255.98221734759161 441.4501343570057Q255.98221734759161 441.4501343570057 283.7942857142857 469.33333333333326Q283.7942857142857 469.33333333333326 255.98221734759161 497.21653230966086Q255.98221734759161 497.21653230966086 228.20571428571427 469.33333333333326Z M314.40263908303046 469.27894138477313 329.19724909141735 484.07355139316 343.88307520268376 469.3877252818936 329.0884651942969 454.5931152735067ZM301.3485714285714 469.27894138477313 329.0884651942969 441.53904761904766 356.9371428571428 469.3877252818936 329.19724909141735 497.1276190476191Z M405.90207116303765 444.5698990971853V466.06139139670734H430.0799999999999V472.60527526995924H405.90207116303765V494.0967675694813H398.6693574083908V472.60527526995924H374.4914285714285V466.06139139670734H398.6693574083908V444.5698990971853Z M453.5201344537815 494.137981592637V454.89898999599836H447.6342857142857V444.52868507402957H503.22285714285715V454.89898999599836H497.3370084033613V494.137981592637H484.1639183673469V454.89898999599836H466.6932244897959V494.137981592637Z"/>
</svg>